#N canvas 124 181 744 563 10;
#X obj 434 34 inlet;
#X obj 434 56 openpanel;
#X obj 434 182 soundfiler;
#X obj 434 78 t s b, f 8;
#X obj 434 128 pack s f;
#X obj 479 103 f \$0;
#X text 382 16 bang to load new sound file;
#X text 528 41 specify your own filepath;
#X obj 585 62 inlet s;
#X msg 434 150 read -resize -maxsize 7.938e+07 \$1 \$2-soundfile_l
\$2-soundfile_r;
#N canvas 664 292 536 319 (subpatch) 0;
#X array \$0-soundfile_l 13553 float 2;
#X coords 0 319 13553 318 200 140 0;
#X restore 434 242 graph;
#N canvas 0 22 450 278 (subpatch) 0;
#X array \$0-soundfile_r 13553 float 2;
#X coords 0 278 13553 277 200 140 0;
#X restore 434 266 graph;
#X text 473 242 \$0-soundfile_l;
#X text 473 267 \$0-soundfile_r;
#X obj 434 203 s \$0-num_samples;
#X obj 127 134 r \$0-num_samples;
#X obj 85 286 pack f f;
#X obj 172 155 loadbang;
#X obj 172 176 samplerate~;
#X obj 157 196 /;
#X obj 157 217 * 1000;
#X obj 112 175 t f f, f 8;
#X msg 85 307 0 \, \$1 \$2;
#X obj 85 328 line~;
#X obj 85 34 inlet f;
#X obj 85 85 t b f, f 27;
#X obj 157 238 *, f 15;
#X text 24 15 trigger playback with <f> speed multiplier;
#X obj 85 266 f, f 5;
#X obj 130 266 f, f 5;
#X obj 85 106 t b b;
#X obj 85 238 t b b, f 8;
#X obj 85 419 tabread4~ \$0-soundfile_l;
#X obj 95 377 tabread4~ \$0-soundfile_r;
#X obj 85 440 outlet~;
#X obj 95 398 outlet~;
#X obj 112 155 f;
#X obj 85 55 expr 1/$f1;
#X obj 286 54 inlet~;
#X text 185 35 +/- multiplier on playback speed;
#X obj 85 349 *~, f 34;
#X obj 286 321 +~ 1;
#X connect 0 0 1 0;
#X connect 1 0 3 0;
#X connect 2 0 14 0;
#X connect 3 0 4 0;
#X connect 3 1 5 0;
#X connect 4 0 9 0;
#X connect 5 0 4 1;
#X connect 8 0 3 0;
#X connect 9 0 2 0;
#X connect 15 0 36 1;
#X connect 16 0 22 0;
#X connect 17 0 18 0;
#X connect 18 0 19 1;
#X connect 19 0 20 0;
#X connect 20 0 26 0;
#X connect 21 0 28 1;
#X connect 21 1 19 0;
#X connect 22 0 23 0;
#X connect 23 0 40 0;
#X connect 24 0 37 0;
#X connect 25 0 30 0;
#X connect 25 1 26 1;
#X connect 26 0 29 1;
#X connect 28 0 16 0;
#X connect 29 0 16 1;
#X connect 30 0 31 0;
#X connect 30 1 36 0;
#X connect 31 0 28 0;
#X connect 31 1 29 0;
#X connect 32 0 34 0;
#X connect 33 0 35 0;
#X connect 36 0 21 0;
#X connect 37 0 25 0;
#X connect 38 0 41 0;
#X connect 40 0 33 0;
#X connect 40 0 32 0;
#X connect 41 0 40 1;
